<?xml version="1.0" encoding="utf-8"?>
<!-- Generator: Adobe Illustrator 23.0.5, SVG Export Plug-In . SVG Version: 6.00 Build 0)  -->
<svg version="1.1" id="Layer_2" xmlns="http://www.w3.org/2000/svg" xmlns:xlink="http://www.w3.org/1999/xlink" x="0px" y="0px"
	 viewBox="0 0 429.7 429.7" style="enable-background:new 0 0 429.7 429.7;" xml:space="preserve">
<style type="text/css">
	.st0{fill:#1479BF;}
	.st1{fill:#273373;}
</style>
<g>
	<path class="st0" d="M263.23,406.1l-85.34-85.34c-1.69-1.69-1.69-4.43,0-6.11l85.34-85.34c1.69-1.69,4.43-1.69,6.11,0l85.34,85.34
		c1.69,1.69,1.69,4.43,0,6.11l-85.34,85.34C267.65,407.78,264.91,407.78,263.23,406.1z"/>
	<path class="st1" d="M160.36,303.23l-85.34-85.34c-1.69-1.69-1.69-4.43,0-6.11L263.2,23.61c1.69-1.69,4.43-1.69,6.11,0l85.34,85.34
		c1.69,1.69,1.69,4.43,0,6.11L166.48,303.23C164.79,304.92,162.05,304.92,160.36,303.23z"/>
</g>
</svg>
